<svg xmlns="http://www.w3.org/2000/svg" viewBox="0 0 900 230" width="900" height="230" role="img" aria-labelledby="t d">
  <title id="t">m5stack-lab /cardputer-adv-mirror</title>
  <desc id="d">Mirror a Cardputer ADV display in any browser over WiFi</desc>
  <defs>
    <pattern id="g" width="22" height="22" patternUnits="userSpaceOnUse"><path d="M22 0H0V22" fill="none" stroke="#161b22"/></pattern>
    <linearGradient id="u" x1="0" x2="1"><stop offset="0" stop-color="#2dd4bf"/><stop offset=".5" stop-color="#2dd4bf" stop-opacity=".25"/><stop offset="1" stop-color="#2dd4bf" stop-opacity="0"/></linearGradient>
    <radialGradient id="h" cx="10%" cy="40%" r="35%"><stop offset="0" stop-color="#2dd4bf" stop-opacity=".16"/><stop offset="1" stop-color="#2dd4bf" stop-opacity="0"/></radialGradient>
  </defs>
  <style>
    text{font-family:ui-monospace,SFMono-Regular,"SF Mono",Menlo,Consolas,"Liberation Mono",monospace}
    .pulse{animation:pulse 2.4s ease-in-out infinite}.d1{animation-delay:.4s}.d2{animation-delay:.8s}
    @keyframes pulse{0%,100%{opacity:.45}50%{opacity:1}}
    .step{animation:step 3s ease-in-out infinite}@keyframes step{0%,100%{opacity:.3}20%{opacity:1}}
    .blink{animation:blink 1s steps(1) infinite}@keyframes blink{50%{opacity:0}}
    .flash{animation:flash 3.2s ease-in-out infinite}@keyframes flash{0%,40%,100%{opacity:1}45%{opacity:.2}50%{opacity:1}55%{opacity:.3}}
    .eq{transform-box:fill-box;transform-origin:bottom;animation:eq 1.4s ease-in-out infinite}.e1{animation-delay:-.4s}.e2{animation-delay:-.8s}
    @keyframes eq{0%,100%{transform:scaleY(.35)}50%{transform:scaleY(1)}}
    .dash{animation:dash 1s linear infinite}@keyframes dash{to{stroke-dashoffset:-14}}
    .shim{animation:shim 4s ease-in-out infinite}@keyframes shim{0%,100%{opacity:.55}50%{opacity:1}}
    @media (prefers-reduced-motion:reduce){*{animation:none!important}}
  </style>
  <rect x="1" y="1" width="898" height="228" rx="16" fill="#0d1117" stroke="#30363d"/>
  <rect x="1" y="1" width="898" height="228" rx="16" fill="url(#g)"/>
  <rect x="1" y="1" width="898" height="228" rx="16" fill="url(#h)"/>
  <g transform="translate(90 98)"><rect x="-38" y="-26" width="44" height="34" rx="5" fill="#161b22" stroke="#2dd4bf" stroke-width="3.5"/><rect x="2" y="-6" width="38" height="30" rx="4" fill="#161b22" stroke="#e6edf3" stroke-width="3"/><path class="dash" d="M-16 8C-16 22 -4 20 2 12" fill="none" stroke="#2dd4bf" stroke-width="2.5" stroke-dasharray="3 4"/><rect class="eq e0" x="-32" y="-18" width="5" height="18" fill="#2dd4bf"/><rect class="eq e1" x="-24" y="-18" width="5" height="18" fill="#2dd4bf"/><rect class="eq e2" x="-16" y="-18" width="5" height="18" fill="#2dd4bf"/><rect class="eq e0" x="-8" y="-18" width="5" height="18" fill="#2dd4bf"/></g>
  <line x1="170" y1="30" x2="170" y2="172" stroke="#30363d"/>
  <text x="196" y="56" font-size="15" fill="#8b949e">m5stack-lab /</text>
  <text x="194" y="100" font-size="40" font-weight="700" fill="#e6edf3">cardputer-adv-mirror</text>
  <text x="196" y="122" font-size="14" fill="#8b949e">Mirror a Cardputer ADV display in any browser over WiFi</text>
  <rect class="shim" x="196" y="132" width="340" height="3" rx="1.5" fill="url(#u)"/>
  <rect x="196" y="146" width="83" height="24" rx="12" fill="#58a6ff" fill-opacity=".12" stroke="#58a6ff" stroke-opacity=".7"/><text x="237" y="162" text-anchor="middle" font-size="12" fill="#58a6ff">ESP32-S3</text><rect x="289" y="146" width="45" height="24" rx="12" fill="#3fb950" fill-opacity=".12" stroke="#3fb950" stroke-opacity=".7"/><text x="311" y="162" text-anchor="middle" font-size="12" fill="#3fb950">SPI</text><rect x="344" y="146" width="90" height="24" rx="12" fill="#e3b341" fill-opacity=".12" stroke="#e3b341" stroke-opacity=".7"/><text x="389" y="162" text-anchor="middle" font-size="12" fill="#e3b341">WebSocket</text>
  <line x1="1" y1="182" x2="899" y2="182" stroke="#21262d"/>
  <circle class="step" style="animation-delay:0.0s" cx="40" cy="204" r="4" fill="#2dd4bf"/><text x="52" y="208" font-size="12.5" fill="#8b949e">GRAM</text><text x="87.2" y="208" font-size="12" fill="#484f58">→</text><circle class="step" style="animation-delay:0.6s" cx="115.2" cy="204" r="4" fill="#2dd4bf"/><text x="127.2" y="208" font-size="12.5" fill="#8b949e">readback</text><text x="193.60000000000002" y="208" font-size="12" fill="#484f58">→</text><circle class="step" style="animation-delay:1.2s" cx="221.60000000000002" cy="204" r="4" fill="#2dd4bf"/><text x="233.60000000000002" y="208" font-size="12.5" fill="#8b949e">stream</text><text x="284.40000000000003" y="208" font-size="12" fill="#484f58">→</text><circle class="step" style="animation-delay:1.8s" cx="312.40000000000003" cy="204" r="4" fill="#2dd4bf"/><text x="324.40000000000003" y="208" font-size="12.5" fill="#8b949e">browser</text>
</svg>
